<?xml version="1.0" encoding="UTF-8" standalone="no"?>
<!--********* Copyright (c) 2024 Pareto Softare, LLC DBA Simplemaps.com ***************************************
************* Free for Commercial Use, full terms at  https://simplemaps.com/resources/svg-license ************
************* Attribution is appreciated! https://simplemaps.com *******************************************-->

<svg
   baseprofile="tiny"
   fill="#6f9c76"
   height="500"
   stroke="#ffffff"
   stroke-linecap="round"
   stroke-linejoin="round"
   stroke-width="0.5"
   version="1.2"
   viewbox="0 0 1000 1353"
   width="300"
   id="svg1"
   sodipodi:docname="nz.svg"
   inkscape:version="1.4.2 (ebf0e940, 2025-05-08)"
   xmlns:inkscape="http://www.inkscape.org/namespaces/inkscape"
   xmlns:sodipodi="http://sodipodi.sourceforge.net/DTD/sodipodi-0.dtd"
   xmlns="http://www.w3.org/2000/svg"
   xmlns:svg="http://www.w3.org/2000/svg">
  <defs
     id="defs1" />
  <sodipodi:namedview
     id="namedview1"
     pagecolor="#ffffff"
     bordercolor="#000000"
     borderopacity="0.25"
     inkscape:showpageshadow="2"
     inkscape:pageopacity="0.0"
     inkscape:pagecheckerboard="0"
     inkscape:deskcolor="#d1d1d1"
     inkscape:zoom="0.56918731"
     inkscape:cx="282.85943"
     inkscape:cy="275.83187"
     inkscape:window-width="1472"
     inkscape:window-height="813"
     inkscape:window-x="0"
     inkscape:window-y="37"
     inkscape:window-maximized="0"
     inkscape:current-layer="svg1" />
  <g
     id="features"
     transform="matrix(0.34474095,0,0,0.34474095,-21.728191,25.431033)"
     style="stroke:#000000;stroke-opacity:0;opacity:1;fill:#4b5450;fill-opacity:1">
    <path
       d="m 117.4,1277.1 -0.4,0.7 -0.5,2 0.4,0.9 0.3,1 0.2,1.1 v 1.1 l -0.6,-0.3 -0.4,-0.6 -0.6,-1.5 -0.6,-0.3 -2.4,0.7 v -0.7 l 3.4,-3.6 z m 51.6,-74.6 0.8,-1.4 1.6,-1 1.5,-0.2 0.7,1.3 -0.9,0.8 -1.6,1.2 -1.5,0.5 z m 19.2,-43.5 -0.7,0.8 -1,0.3 -0.9,-0.3 -0.4,-1.3 0.3,-1.3 0.7,-0.6 1,-0.2 0.9,0.3 0.8,0.7 z m 58.3,-5 1,2.2 -0.8,2 -1.4,1.6 -0.6,0.9 0.3,-1 -0.4,-0.9 -0.8,-0.9 -0.5,-1.2 1,-0.1 1,-0.5 0.8,-0.8 z m -25.8,30.5 2.9,2.1 0.9,0.9 0.1,0.6 -0.5,0.3 -0.7,0.1 h -0.5 l -0.3,-0.3 -0.5,-1.3 -0.5,-0.4 -1.5,-0.1 -0.4,0.7 0.5,2.4 -0.8,0.5 -2.3,-1 0.8,1.5 H 213 l -4.1,0.7 -1.7,0.8 -4.1,3.9 -1.2,1.6 -0.9,0.7 h -1.2 l -1.1,-0.6 -0.9,-0.8 -1,-0.5 -2.4,0.4 -0.9,-0.2 -0.6,-1.1 -0.4,-1.4 -0.6,-0.7 -1.3,1.2 -1.2,0.3 -0.5,0.3 v 0.4 l -0.4,2.4 -1.1,-0.8 -3.3,2.7 -2,0.7 1.2,1.3 2.1,-0.4 4,-1.6 -0.8,1.9 -0.7,1.3 -2.1,2.2 v -2.4 l -0.8,0.1 -1.2,1.2 -1,1.4 -1.2,0.7 -2.2,0.5 -2.3,0.2 -1.3,-0.5 -0.4,-1.8 0.5,-2.5 0.8,-2.4 0.7,-1.5 0.7,-0.6 1.3,-0.2 1.3,-1.1 2.3,-1.2 -1.1,-0.8 v -0.9 l 0.4,-1 0.4,-1.2 -0.1,-1.5 -0.3,-1.1 v -1.1 l 0.5,-1.3 0.7,-1 0.7,-0.6 1.6,-1.1 1.1,-0.4 0.8,0.3 0.8,0.4 0.9,0.1 1.1,-1.3 -0.2,-2.4 -0.5,-2.5 0.3,-2.1 0.8,-0.5 h 1.9 l 0.9,-0.8 1.1,-1.9 0.4,-1.1 0.1,-1.3 -0.3,-2.2 -0.9,-2.1 -2.2,-3.4 -0.4,-1 0.3,-0.9 0.5,-0.7 0.2,-0.7 v -0.6 l -0.1,-0.5 -0.2,-0.4 -0.3,-0.5 -0.3,-0.7 0.1,-0.5 0.3,-0.5 0.1,-0.5 0.4,-2.8 0.9,-1.4 1.5,-0.4 2,-0.1 1.8,0.6 1,0.2 0.8,-0.5 1,-0.9 0.7,-0.2 3.1,1.6 1.3,1.1 1.1,1.3 5.9,8.4 1,0.9 1.1,0.8 0.9,0.9 0.4,1.3 0.8,0.3 1.5,0.9 0.8,1.2 -1.3,1.3 1.4,0.7 v 0.6 l -1.7,0.6 -6,-0.6 0.5,-1.3 -3.7,-0.2 -1.3,0.7 0.7,1.8 -0.2,1.1 -3.2,4.6 1.6,-0.2 2.3,-3 1.5,-0.8 0.7,0.3 1.8,1.4 1.7,0.4 2.6,1.2 -0.3,0.7 -0.2,0.5 -0.3,0.4 -0.6,0.3 v 0.7 h 0.8 l 3.6,-1.3 0.8,-0.1 0.9,-0.5 0.5,-0.1 0.2,0.4 0.2,0.7 0.5,0.7 0.6,0.5 0.5,0.3 -0.3,1 -0.4,2.4 -0.2,0.7 -0.7,0.4 -0.8,-0.1 -0.8,-0.2 -0.8,-0.1 z m -98.4,-137 1.2,1 0.9,1.8 0.6,2.2 0.1,2 -0.2,2.1 -0.8,1.5 -1.1,0.8 -1.5,0.2 -0.1,-0.5 -0.5,-0.9 -0.6,-0.5 -0.4,1.7 -0.6,0.4 h -0.6 l -0.5,-0.2 -0.4,-1 -0.3,-1.8 -0.2,-2 0.1,-1 -1,-1.8 -1.1,0.1 -4.1,4.9 -1.1,0.8 -1.4,0.5 0.4,-1.3 0.6,-1.7 0.8,-1.5 0.8,-0.7 0.1,-0.3 0.8,-1.4 0.5,-1.4 0.8,-0.2 h 1.7 l 5.3,-1.8 1.2,-0.1 z m 17.3,-42.6 0.6,3.3 1,3.2 2.4,6.3 -2.2,0.5 -0.9,-0.3 -1.1,-1.2 -1.1,-0.7 -1.4,-0.5 -1.3,-0.6 -0.6,-1.3 -0.7,-1.2 -0.1,-0.8 0.6,-0.3 -0.1,-0.4 0.4,-0.9 4,-6.4 v 0.4 l 0.2,0.3 0.1,0.2 z m 489.6,-367.7 1.1,0.1 0.2,0.7 -0.1,1 0.2,1.2 -0.5,1.1 -0.4,2.6 -0.5,1.1 -0.9,0.6 -1.2,0.1 -1.2,-0.1 h -1.2 l -0.9,0.5 -1.7,1.5 -0.6,0.4 -1,0.2 -3.4,-0.2 0.3,-0.3 0.8,-0.7 0.2,-0.2 h 0.7 l 1.6,0.1 0.6,-0.4 3.4,-3.9 1.1,1.2 1.5,-0.6 1.1,-1.4 -0.1,-1.6 -0.8,0.4 -0.8,-0.1 -0.7,-0.6 -0.4,-0.9 1.2,-0.1 0.8,-0.6 0.8,-0.7 z m -39.4,-17.5 0.8,-0.4 0.4,-0.7 0.1,-0.9 -0.4,-0.9 -0.7,0.8 -0.2,0.3 -0.4,-1 -0.1,-1.1 0.1,-1.1 0.4,-0.9 1,0.9 0.8,1.1 0.9,0.7 1.4,0.3 v -0.6 l -0.8,-0.7 -0.8,-0.9 -0.5,-1.1 -0.2,-1.5 0.2,-1.3 0.8,-3.3 0.4,-0.7 0.3,0.1 0.1,0.7 0.2,0.7 0.7,0.2 0.3,-1.2 0.3,-0.8 0.6,-0.4 0.9,0.5 0.1,1.3 -0.2,1.6 0.3,1.4 0.5,-0.8 2.1,-0.7 1,-0.9 H 598 l 1.5,-1.3 0.6,-0.7 0.6,-1 0.7,-2.5 0.3,-0.5 0.3,1.3 v 1.2 l -0.2,1.2 -0.7,2.3 0.4,0.9 0.2,0.6 -0.3,0.2 -0.4,0.3 -1,1.1 -0.3,0.5 -0.2,0.9 -0.2,2.3 -0.4,1 -0.3,0.1 -1.3,-0.1 -0.4,0.2 -0.8,1.1 -0.4,0.4 -1.6,0.6 -0.5,0.3 -0.2,0.6 -0.2,0.6 -0.2,0.4 -0.9,0.6 -0.9,0.4 -1,0.1 -0.8,-0.5 0.2,-0.3 0.1,-0.3 v -0.3 z m -68.4,211.4 0.4,1.2 -0.4,2.2 -0.3,2.3 -0.1,4.8 -0.5,0.5 -0.4,1.3 0.2,1.9 1.2,5.7 1.9,5.4 -0.2,1.5 -0.8,-1.1 -0.8,-0.1 -0.3,0.6 0.5,1.2 1,0.8 4.1,1.1 -1.9,0.9 -4.4,0.3 -1.9,0.6 -1.8,1.7 0.8,0.7 1.8,0.3 1.5,0.4 1.3,-1.8 2.5,-0.6 h 2.4 l 1,0.2 0.3,1.4 0.6,1.3 0.7,0.8 0.2,-0.4 0.4,-2.3 0.5,-2.3 1.8,1.1 0.4,0.8 0.1,1.5 -0.2,2.5 0.2,0.6 0.9,-0.3 0.6,-0.7 0.5,-1.1 0.5,-0.9 0.9,-0.4 1,0.1 1,0.4 0.7,0.8 0.3,1.2 1.9,-2.1 0.8,-0.4 0.2,1.6 0.8,0.9 0.9,0.7 0.8,1.1 v 0.7 l -0.1,0.8 -0.3,0.6 -0.1,0.5 0.2,0.5 0.5,1 0.2,0.4 0.3,2.5 -0.2,2.7 -0.6,2.5 -0.8,2.3 -0.8,-1.2 -1.6,2.1 -1.2,-0.3 -0.5,2 v 0.6 l -0.5,-0.8 -0.6,-0.1 -0.6,0.3 -0.5,0.6 -0.3,-1.2 -0.9,-2 -0.2,-1.2 v -1.4 l 0.2,-0.8 -0.1,-0.7 -0.8,-1.2 -0.4,-1.2 0.2,-1.4 -0.1,-1.1 -0.8,-0.4 -1.1,0.4 -0.4,0.9 0.2,1.1 0.8,0.8 -0.9,2.4 -0.1,2.5 0.7,2.5 2.1,3.3 -0.2,0.2 -1.6,-0.3 h -4.3 l -0.9,-0.5 -1.5,-1.9 -1.5,0.5 -0.8,-0.6 -1.4,-1.9 -2.6,-2.7 v -1.2 l 1.2,-1.7 -1.1,0.1 -1.8,0.9 -5.4,0.7 -1.9,1 -3.8,0.4 -5.8,2.1 -2.7,0.4 -0.6,-0.3 0.3,-1 0.6,-0.7 0.9,-0.4 1.7,-0.2 10,-3.5 1,-0.1 1,-0.3 -0.5,-0.7 -1.9,-1.2 -0.8,-0.2 -2.1,0.3 -1.1,-0.5 -0.5,-0.5 -0.8,-1.3 -0.5,-0.6 -1.8,-0.9 -1.7,0.3 -1.7,0.7 -1.9,0.4 -1.1,1 -0.6,2.3 -0.3,2.7 v 2.2 l 0.2,1.4 0.1,0.5 -0.2,0.5 -0.8,1.1 -0.7,0.3 -5.5,0.9 -0.8,-0.2 -1.3,0.5 -1.2,1.4 -3,1 -1.4,1.2 -6.9,3.3 -12.7,9.4 -2,0.3 -1.1,-0.2 -1,0.1 -0.9,0.6 -4.9,3.4 -2.4,0.6 -1,0.4 -0.8,0.7 -0.7,0.9 -0.8,0.7 -1.8,0.5 -1.8,1.3 -0.7,0.3 -1.1,0.4 -1.2,1.4 -0.7,0.7 -0.4,0.8 -1.7,0.7 -0.9,0.6 -4,4.4 -1.6,0.9 -1.3,-0.5 -1,0.7 -0.8,0.6 -0.5,1 -0.2,0.9 -3.6,6.6 -0.3,1.1 v 5.3 l -0.3,1.7 -0.9,1.4 -1.9,2.3 -0.2,0.8 v 1.1 l -0.2,0.9 -0.8,0.4 -0.5,0.1 -1.9,1.2 1.4,1.8 0.4,3.2 v 7 l 0.7,4.5 0.1,1.6 -0.3,1.7 -0.8,0.8 -0.9,0.5 -0.6,1.1 1.8,0.3 0.7,2.3 -0.1,3 -0.5,5.5 -0.7,1.9 -0.8,1.4 -0.5,1.2 -0.7,1.4 -0.2,1.4 -4.5,8.5 -7.3,7.6 -3.6,7.8 -1.6,6.7 -0.9,2 -0.8,2.3 1,1.2 1.1,1.1 -0.1,2.2 -2.5,2.9 -0.6,1.3 v 1 l 0.2,1 0.2,1.2 -0.9,1.7 -1.9,1.3 -1.3,1.5 0.5,2.3 -0.8,1.1 -0.8,0.6 -0.9,-0.1 -1.2,-0.9 0.1,1 0.2,1 0.6,1.8 -1.1,1 -0.8,0.4 -2.4,-0.1 -1.3,0.5 v 1 l 1,0.9 1.5,0.2 -1.6,3.5 -0.5,0.5 -0.7,0.2 -0.9,0.5 -1.3,1.2 -0.6,0.2 -0.4,-0.1 h -0.3 l -0.1,0.8 v 0.9 l 0.1,0.5 0.2,0.2 0.6,0.1 1,0.3 0.9,0.6 0.9,0.2 0.8,-1.1 1.2,1 1.8,0.9 1.3,1 0.1,1.3 -1.2,0.9 -3.2,0.6 -1.4,0.8 -1.2,2 -0.5,0.6 -0.6,0.2 -0.7,0.2 -0.7,0.3 -0.8,2.4 -2.5,1.7 -0.6,1.6 1.2,-0.6 2.4,-0.7 2,-1.7 3,-1.2 0.9,-0.9 1,-2.2 0.8,-1.1 0.9,-0.6 0.8,-0.2 0.8,-0.5 0.7,-1.3 0.7,1.2 0.2,1.5 -0.2,5.2 -0.6,1.2 -0.9,0.5 -1.5,0.1 -1.3,-0.1 -0.3,0.2 -0.7,0.5 -0.3,0.6 v 0.7 l -0.1,0.5 -13.7,1.5 -5.7,1.9 -4.9,3.6 -3.8,5.6 -1,2.2 -0.3,1.1 -0.2,2.9 -0.6,1.8 -0.1,0.8 -0.5,2.1 -1.2,1.8 -1.5,1.4 -1.4,0.9 -3.5,1.5 -1.6,1.1 -1.4,1.7 -1.2,1.8 -1.2,1.4 -9.2,6.6 -2.3,3.2 -0.9,5 0.2,2.6 -0.3,1 -1.9,0.7 -1.5,1.3 -0.6,0.3 -1.1,-0.2 -2.2,-0.9 -1.1,-0.2 -1.2,0.2 -1.9,0.8 -1.1,0.3 1.1,0.5 5.3,0.2 -1.3,3.4 -2.1,1.4 -2.4,0.9 -2.2,1.9 -0.9,-0.1 -1.7,-0.7 -1.9,-0.5 -1.3,0.7 -0.9,0.8 -3.5,2.1 0.4,0.4 0.7,1.2 0.3,0.4 -1.8,0.6 -2.2,-0.7 -2,-0.2 -1.2,2.3 -1.4,-1.1 -0.4,-0.2 -2.3,-0.4 -1.2,0.1 -0.9,0.6 -1.3,1.5 -0.8,0.6 -0.8,0.2 -2.3,0.3 -0.9,-0.1 -0.9,-0.9 0.3,-1.9 -0.2,-1.1 -0.1,-0.1 -0.8,-0.2 -0.6,0.7 v 2.1 l -0.8,0.7 -0.1,0.5 -0.2,0.4 -0.4,0.3 h -2 l -1.2,-0.4 -0.7,-0.9 -0.4,-0.9 -0.5,-0.5 -0.8,0.1 v 0.8 l 0.2,1.2 -0.3,1.2 -1.8,1.1 -2.2,-0.6 -2.3,-1.2 -1.8,-0.6 -2.2,0.1 -1.2,-0.2 -0.7,-1.2 -1.7,-6 -0.1,-0.9 -0.4,-1.1 h -0.9 l -1.9,0.7 -6.8,1.3 h -2.3 l 0.6,-1 0.8,-0.3 0.9,-0.2 0.9,-0.5 -1.3,-0.8 -1.7,-0.4 -3.3,-0.1 0.5,1.4 0.9,0.8 0.4,0.8 -0.9,1 0.3,0.3 0.4,0.7 0.2,0.3 -3.5,1.2 -11.4,-1.2 0.8,-1.7 0.4,-0.5 0.5,-0.4 1,-0.3 h 2.3 l 0.8,0.3 0.7,1.1 1.9,0.4 1.2,-0.6 -1.5,-1.6 -1.9,-0.8 -5.8,0.1 -2.6,-1.7 -1.4,-0.3 -0.5,1.7 0.4,2 2,2.6 0.8,1.7 -1.8,-0.3 -2.4,-3 -1.5,-0.7 -0.3,-0.4 -0.1,-0.9 -0.4,-0.9 -1.7,-0.6 -0.5,-0.5 -0.3,-0.9 -0.1,-1.1 2,-0.6 h 0.7 l 0.7,0.2 0.1,0.3 v 0.4 l 0.3,0.7 0.5,-0.6 3.4,-3 0.6,-2.5 -0.4,-3.1 -1.3,-2.3 h -1.6 l 0.5,2.4 -0.7,2.3 -1.2,1.4 -1.4,-0.2 -0.8,-1.3 -1.3,-4 -3.6,-6.6 -1,-1.2 -1.9,-0.5 -6.5,1.2 -0.9,0.5 -0.1,1.1 0.2,1.1 -0.1,0.5 -1,-0.3 -1.1,-0.5 -1.2,-0.4 -0.8,0.3 -2,-0.3 H 204 l -0.5,0.9 -0.4,1.1 -0.8,0.2 -0.8,-0.1 -0.7,-0.3 -0.9,-0.5 -0.5,-0.1 -0.5,0.3 -1,0.9 -0.3,0.2 -0.8,-0.4 -0.6,-0.6 -0.7,-1 -0.7,-0.3 -0.6,-0.9 -0.9,-1.7 -0.7,-0.7 -1.5,-0.9 -0.8,-0.7 0.9,-0.5 0.9,-0.4 0.8,-0.6 0.6,-1.2 -3.3,-4.5 -1.7,-2.7 v -2 l -1,-0.8 -2.7,-0.3 -1.3,-0.4 -3.1,-2.1 -1,-0.3 -7.6,-0.8 -0.5,0.2 -0.4,0.7 -0.1,1.5 -0.2,0.8 -0.8,1.5 -0.2,1.3 -0.2,1.2 -0.4,1.5 -0.8,1.1 -1,0.3 -2.3,-0.1 -1,0.3 -2,1.3 -1,0.4 -1.3,-0.2 -2.8,-1 -1.4,-0.1 -1.1,0.3 -0.5,0.3 -0.4,0.4 -0.5,0.2 -0.3,-0.3 -0.3,-0.6 -0.3,-0.3 -0.7,-0.2 -4.3,-2 h -1.1 l -1.1,0.2 h -1.2 l -4.5,-1.3 -9,0.2 -4.5,-0.7 -3.7,-2.8 -2,-2.7 -0.3,-0.9 0.4,-0.6 1.9,-0.9 0.7,-0.5 2.5,-2.9 2.3,-3.2 1.8,-4.5 1.1,-1.9 1.3,-0.8 2,-0.5 3,-2.5 1.6,-1 v -0.6 l -1.4,0.2 -4,2.4 -2.9,1.1 -1.6,0.9 -0.9,1.2 -0.3,1.1 0.2,0.7 0.2,0.6 -0.1,0.9 -0.3,0.2 -2.1,2.3 -0.1,0.4 -0.2,-0.1 -0.5,-0.8 v -0.5 l 0.3,-0.7 v -0.8 l -0.8,-0.7 -0.8,3 -2.1,1.2 -4.8,1.1 v -1.7 l 0.2,-1.5 0.6,-0.7 1,0.6 0.3,-3 0.7,-2.1 1.3,-1.5 1.8,-1.2 4,-0.9 1.7,-0.9 1.1,-2.1 -2.2,1.1 -2.3,0.8 -1,-0.1 -1.2,-0.4 -1,-0.5 -0.2,-0.6 3.6,-4.5 0.6,-1 0.1,-0.7 -0.7,-0.7 -0.7,0.1 -0.7,0.6 -0.7,0.7 -0.2,0.4 -0.3,0.6 -0.2,0.7 -0.1,0.5 -1.2,0.9 -0.4,0.4 -1.8,3 -0.3,0.9 -0.9,1.1 -6.3,1.9 -0.9,0.5 -1.6,1.7 -0.5,0.4 -0.4,-0.5 -0.6,-1.1 -0.3,-1.2 v -0.8 l 0.2,-1.1 v -1.2 l -0.4,-1.9 v -8.6 l 0.5,-2.2 1,-0.9 4.3,-0.6 h 4.6 l -0.5,0.6 0.5,0.7 1.6,-1.4 2,-0.6 h 4.1 l 1.7,-0.3 3.5,-1.3 1.8,-0.3 2,0.3 h 0.9 l 0.7,-0.7 0.6,-0.7 0.6,-0.6 1.3,-1 3.2,-1.4 1.4,-1.1 0.8,-2 -2.8,1.1 -1,0.2 -4.7,-0.6 -6.2,1.8 -1.6,-0.5 1.3,-2.8 0.8,-1 1.1,-0.8 3.5,-1 1.1,-0.9 -6.4,0.9 -1.1,-0.3 -0.5,-2.2 v -2.1 l 0.8,-1.6 1.5,-0.6 1.8,-0.4 3.3,-1.8 1.9,-0.3 3.5,1.2 1.8,0.1 1.5,-1.3 H 140 l -1,-0.3 -0.8,-1.1 4.3,-1.3 1.9,-1.5 0.6,-2.4 -8.8,4.7 -5.4,1.1 -3.7,2.1 -0.7,0.1 -1.4,0.4 -0.8,0.1 -1.2,-0.2 -0.5,-0.3 -0.8,-1.8 v -1.4 l 2.5,-5.4 1.1,-5.6 0.7,-1.5 3,-1.6 3.2,1.4 3.2,2.1 2.8,0.7 -0.7,-2.3 -1.1,-2.3 -1,-0.8 -0.8,2.2 -1.2,-1 -2.6,-1.4 -1.2,-0.8 -0.8,-1.1 -0.3,-1.1 0.4,-1.1 0.9,-1.6 2.3,-2.4 1.4,-1.1 0.7,0.3 0.5,1.6 1.2,1.2 2.8,1.3 -0.6,0.5 -0.6,0.6 -0.4,0.7 -0.2,0.9 2.1,-0.3 1.8,-0.9 1.8,-0.1 1.9,1.9 0.5,0.9 0.3,0.8 -0.2,0.9 -0.6,1.3 -1.7,1.3 -0.7,0.9 0.6,0.4 2.2,-0.1 0.8,-0.5 0.9,-1 0.4,-1.3 0.3,-1.2 0.5,-0.5 1.8,1.7 0.8,0.5 0.7,0.8 0.4,2.2 1.2,3.2 0.3,-0.3 0.2,-0.3 0.5,0.4 0.8,0.4 0.5,0.5 -0.4,-3.1 -3.4,-4.5 -6.7,-6.7 1,-1.3 1.1,-0.6 6.7,-2 1.2,0.1 0.7,0.7 1.1,2.3 1,0.8 1.2,0.5 h 1.4 l 1.2,-0.5 0.7,-1.2 -1.1,-0.4 -2.3,0.1 -0.9,-0.6 -0.7,-1 -0.2,-0.5 0.2,-1.8 0.3,-1 0.6,-0.4 v -0.1 h -2.5 l -2.5,1.2 -1.7,0.5 -5.4,0.5 -1.1,-0.7 -0.1,-1.2 -0.6,-1.9 -0.4,-1.8 -1.2,-1.1 -0.3,-1 -0.2,-4.2 0.5,-1.6 1.4,-1 2,0.1 1.6,1.1 2.6,3.6 0.7,0.7 1.1,0.4 h 1.1 l 0.5,-0.7 -0.4,-0.6 -2.4,-2 -2.4,-3.2 -1.4,-1.2 -1.6,-0.1 2.6,-4.3 1.6,-1.6 1.5,0.4 2.5,4.2 0.1,1.4 -0.1,1.2 0.1,1.1 0.8,0.8 0.3,-1.3 -0.2,-1.9 0.3,-0.7 1,-0.5 4,0.5 -1,-1.2 -3.7,-1.4 -1.4,-0.9 -1.1,-1.5 -0.8,-1.6 -0.1,-1.5 0.9,-1.5 1.6,-0.6 1.7,0.5 1.7,0.9 1.8,0.5 1.4,0.7 1.6,1.4 1.5,0.9 0.9,-1.1 -1.3,-0.3 -7.9,-4.7 -0.8,-0.8 0.3,-1.3 1.1,-1.3 3.3,-2.9 1.1,-0.5 1.3,-0.3 1.5,-0.1 -0.3,-0.4 -0.7,-1 -0.3,-0.5 5.1,-3 2.1,-0.2 0.9,2.9 0.3,0.4 0.4,0.6 0.5,0.6 0.2,0.9 -0.2,0.9 -0.6,1.8 -0.1,0.9 0.5,1.3 0.8,0.9 0.5,1.2 -0.5,1.7 2.5,0.3 1.2,-0.2 -0.3,-1 -0.2,-0.5 -0.3,-0.7 -0.1,-0.7 v -0.7 l -0.2,-0.6 -1.4,-1.3 -0.2,-1 0.2,-1.3 v -1.5 l -0.5,-1.4 -0.5,-0.9 -0.9,-3 -0.2,-1.2 0.8,-3.2 2,-2 2.4,-0.4 2.1,2.1 0.4,1.2 -0.2,0.7 -0.5,0.6 -0.6,1.4 -0.3,1.7 0.2,1.4 0.6,1 1.2,1 0.1,-2.1 0.6,-1.4 0.7,-1.3 0.5,-1.6 -0.1,-1.9 -1.8,-1.9 -0.4,-1.7 -0.7,-1.2 -0.2,-0.7 1.3,-0.6 0.7,-0.7 0.7,-0.4 0.7,0.5 1.3,1.8 1,1.1 1.3,0.7 1.7,0.5 -1.1,-0.6 -2.5,-3.2 -1.7,-1.5 -0.3,-1 0.5,-1.3 1.1,-0.9 3.5,-1 0.4,-0.6 0.6,-1.3 0.3,-0.6 0.5,-0.3 1.1,-0.3 0.5,-0.4 1.9,-2.1 1.9,-0.8 2,0.4 2.9,2.7 2.2,1.3 0.9,1 2,4.1 0.5,-1 0.1,-1.4 -0.1,-1.5 -0.5,-1.1 -0.4,-0.4 -1.4,-0.9 -1.8,-1.9 -0.4,-0.3 -0.3,-0.1 -0.4,-0.2 -0.3,-0.7 -0.1,-0.7 0.1,-2.5 -0.4,-2.6 -0.4,-1.4 -0.5,-1.1 1.5,-2.3 5.5,-6.2 1.9,-1.8 2.4,-1.6 1.7,-2.1 -0.4,-3.1 h 6 l 0.6,-0.3 0.8,-1.6 v -1.4 l -0.2,-0.3 -0.6,-0.8 -1.6,-0.7 v -0.6 l 3.1,-1.1 1.2,-0.8 2.4,-2.8 4.2,-2.8 2.6,-2.6 2.1,-2.8 0.1,-0.6 0.1,-0.9 0.2,-1.2 0.5,-1.1 0.7,-0.7 0.7,-0.7 0.8,-0.5 0.8,-0.3 -0.5,-0.2 -1.3,-1.1 1.3,-0.7 1.3,-0.3 4.1,-0.3 2.4,-0.6 2.3,-1.1 1.3,-1 0.6,-0.7 0.9,-0.5 1.7,0.2 0.6,-0.3 1.7,-1.6 1.1,0.7 1,1.6 1.4,1.5 3.1,0.4 3.8,-1.2 3.6,-2.2 4,-4 3,-2.1 1.3,-1.3 1.2,-0.9 4.2,-2.3 1,-1 0.4,-0.8 v -0.9 l 0.3,-0.7 0.5,-0.5 1.8,-1.2 0.6,-0.2 1.3,-0.7 2.5,-3 1.2,-0.7 1.3,-0.5 4.8,-3.3 3.3,-1.1 1.8,-1 0.8,-1.3 0.3,-0.7 0.7,-0.7 0.8,-0.6 0.7,-0.2 1.7,-0.2 0.6,0.1 0.6,0.1 0.6,-0.1 0.7,-0.6 1,-0.9 2.7,-0.8 2.2,-1.8 2.7,0.6 1.4,-0.1 3.5,-2.8 1.3,-0.3 1.1,-0.8 2.2,-3.4 1,-1.2 0.4,-1 v -1.1 l 1.4,-1.6 1.7,-0.3 0.7,-0.9 0.1,-1.2 0.4,-2 1.4,-1.7 1.4,-1.2 8.9,-4.4 0.8,-1.4 0.6,-2.4 1.4,-0.5 1,-0.9 0.6,-1.5 0.5,-1.3 0.7,-0.5 1.6,-0.7 1.6,-1.3 0.9,-0.4 1.1,-0.2 0.8,0.2 1.4,0.9 0.7,0.2 4.3,-6.9 -2.1,-0.4 -1.6,1.9 -1.5,2.4 -1.6,1.1 1.3,-4 2.2,-2.6 1.7,-1.3 0.7,-1.4 v -0.7 l 4.9,-0.3 1.4,-0.7 0.5,-0.6 -0.5,-0.8 1.2,-1 0.9,-1.3 1,-0.8 1.5,0.7 0.2,-1.6 0.7,-0.3 0.4,-0.7 2.7,-1.6 5.9,-2.2 2.5,-2 2.1,-0.3 1.1,-0.1 0.7,-0.1 0.5,-0.7 0.9,-1 0.7,-0.6 2.4,-1.2 1.2,-1.4 2.4,-3.5 1.2,-0.7 1.1,-1 5.7,-9.8 0.8,-0.9 0.6,-0.3 1.4,-0.5 1.2,-0.9 0.5,-1.1 1,-1.7 0.6,-0.8 0.7,-0.3 1,-0.7 1.1,-1.7 1.7,-3.1 1.2,-0.8 4.7,-9.7 1.4,-1.6 0.7,-1.4 0.2,-2.8 0.4,-2.1 3.2,-5 1.4,-4 1.8,-13.2 1.2,-3.3 0.2,-2 0.7,-2.1 0.4,-0.8 2.2,-2.8 1,-1.5 0.6,-2.1 1.2,-5.5 0.9,-1.8 0.6,-2.9 1.4,-3.4 -0.5,-1 -0.4,0.7 -0.3,-0.7 -0.1,-0.5 -0.1,-4.1 1,-0.8 4,0.6 4.6,-0.7 1.2,0.1 h 0.5 l 3.3,-1.4 6.2,-4.1 1.7,-1.9 0.6,-0.5 1,-0.2 0.9,0.1 0.6,-0.2 0.5,-2 0.5,-0.6 0.6,-0.4 0.7,-0.7 0.9,-1.4 2.5,-5.6 0.3,-0.4 0.3,-0.1 0.2,-0.3 0.1,-1.8 0.1,-0.2 0.2,-0.2 0.4,-0.3 0.5,-0.8 0.3,-0.8 0.3,-1 v -1 l 0.8,-1.3 1.7,-1.5 2,-1.2 1.3,-0.6 -0.2,-0.8 -0.1,-0.8 0.2,-0.9 0.9,-1.7 0.1,-1 v -1.9 l 0.3,-2.1 0.3,-0.9 0.6,0.3 0.3,-0.2 0.6,-0.4 0.8,-0.3 0.8,-0.1 -1.3,-2.4 -0.4,-1.1 -0.6,-9.7 0.2,-1.1 0.6,-2 0.1,-0.8 -0.4,-4.6 v -9.5 l -0.4,-2.7 V 618 l 0.6,-0.7 0.8,-0.1 0.6,-0.2 0.5,-0.5 0.8,-1.8 1.6,-2.1 0.2,-0.5 0.2,-0.9 0.1,-0.4 0.4,-0.4 0.5,-0.1 h 0.4 l 0.5,-0.2 0.2,-0.4 0.2,-0.5 0.3,-0.6 0.4,-0.2 h 0.1 0.9 0.5 l 0.9,-0.9 1.8,-1.2 0.8,-0.3 0.3,-0.3 3.4,-2.7 6.6,-8.2 2.9,-2.8 2.4,-1 -1,2.9 -0.1,1 0.9,0.3 0.3,-0.4 0.4,-0.8 0.5,-0.6 1.1,0.6 0.6,-0.3 0.5,-0.4 0.5,-0.4 -0.3,-1.3 2,-0.9 0.1,-0.8 -0.8,-0.9 -0.2,-0.3 -0.9,0.8 -0.9,0.6 -1,0.1 -0.8,-0.3 2.6,-3.3 3,-1.5 13.1,-0.7 4.2,0.6 4,1.1 2.2,0.2 -1.6,0.6 -14.2,-1.1 -1.1,0.2 -0.7,0.9 -0.6,1.8 -0.7,3.4 -0.6,1.7 -1,0.8 0.6,1.9 -0.3,0.6 -1,0.1 -1.1,-0.1 0.9,2.3 0.4,0.3 1.1,0.4 0.3,0.4 v 1.5 l -0.8,2.6 0.4,1.4 0.4,-0.4 1.4,-0.8 0.9,2.5 2.3,2.3 5.7,4.6 0.8,0.3 0.9,-0.4 1.6,-1.2 0.3,-0.2 0.9,-0.1 0.2,-0.2 -0.1,-1.2 0.1,-0.4 1.1,-1 h 0.5 l 0.7,1 0.8,-1.3 0.9,-0.8 1,0.1 0.9,1.3 0.3,1.1 0.1,0.8 -0.4,1.8 0.4,0.8 -0.1,0.7 -0.8,0.9 1.1,0.2 1,-0.1 0.8,0.3 0.8,1.3 -0.2,0.5 -0.7,3.8 0.2,1.6 0.2,0.8 -0.1,0.6 -0.8,1.2 -1.5,1.6 -1.6,1.3 0.6,0.4 0.5,0.2 0.5,-0.1 0.6,-0.5 0.8,4.4 0.1,1.4 0.4,1.3 0.7,1.1 0.5,1.2 -0.2,1.5 -0.3,-0.9 -0.4,-0.6 -0.5,-0.6 -0.6,-0.3 -0.5,3.1 0.2,0.8 1.1,1.1 0.3,0.6 0.2,1 h 0.5 l 0.7,-1.1 0.5,1.1 0.6,3.6 0.8,2.4 0.1,0.7 -0.4,0.5 -1.1,0.6 -0.3,0.6 0.5,1.3 1.1,0.8 1.5,0.3 h 3.1 l 1.4,-0.2 1.2,-0.7 2.5,-2.1 2.3,-1.4 1.1,-1.3 2.5,-3.6 4.1,-4.1 1.7,-0.7 0.7,-1.2 0.7,-0.3 0.4,0.3 0.1,0.6 -0.2,0.8 -0.3,0.7 2.3,-1 1.1,-0.8 0.9,-0.9 1.1,-2.1 0.5,-0.6 0.6,-0.1 0.6,0.4 h 0.5 l 0.6,-0.9 -0.7,-1 0.6,-1.2 1.2,-1 0.9,-0.5 1.2,0.5 1,1.1 0.7,1.6 0.1,1.7 h 0.4 l 0.4,-0.9 0.3,-0.2 0.3,0.2 0.4,0.9 0.9,-0.6 -0.9,-2.1 0.9,-1 1.8,-0.6 1.6,-0.8 0.5,-1 -0.1,-0.9 -0.5,-0.6 -0.8,-0.3 -2.6,1.8 -0.4,-0.2 v -1.2 l 0.1,-0.5 1,-1.4 0.6,-0.5 1.5,-0.7 0.7,-0.5 0.7,-0.4 3.3,-0.5 0.4,-0.4 1.5,-2.3 1.6,-1.1 -0.3,4 1.6,0.4 0.3,-0.4 2,-2 0.1,-0.5 0.2,-1.1 0.1,-0.3 0.4,-0.2 0.9,-0.3 3.3,-1.8 0.5,-0.1 h 0.8 l 0.8,0.2 0.6,0.4 0.7,2.3 -1.2,0.4 -3.2,-0.9 0.5,1.2 -0.4,0.6 -0.7,0.6 -0.3,1.3 -0.7,-0.3 -0.7,-0.1 -0.7,0.3 -0.6,0.7 0.4,0.5 0.1,0.3 0.3,0.2 0.5,0.2 -1.1,1 -2.1,0.7 -2.1,0.1 -0.9,-1 -1,-0.1 -1.9,0.3 -1,0.9 1.6,1.7 -1,0.6 -0.6,0.7 v 0.7 l 1.1,0.4 -0.2,1.1 -0.4,1 -0.6,0.9 -0.6,0.6 0.5,0.7 0.8,0.2 0.7,-0.5 0.3,-1.3 1.5,-2.3 0.1,-0.4 4.3,-0.8 2.3,-0.1 1.7,0.9 -0.7,-0.1 -0.6,0.2 -0.3,0.5 -0.2,0.9 -0.2,0.8 -0.5,-0.1 -0.6,-0.3 -0.5,-0.1 -0.3,-0.1 -0.5,-0.3 -0.4,-0.1 -0.2,0.8 0.1,0.3 0.3,0.5 0.1,0.4 -0.1,0.8 -0.3,0.4 h -0.4 l -0.6,-0.3 -0.4,2 -1,0.6 -1,0.3 -0.7,1.3 h 1 l 1.2,0.6 1,0.9 0.4,1.2 -0.1,0.9 -0.7,2 -0.1,1 -0.8,1 -1.9,1 -3.6,1.1 0.2,1 0.4,0.7 0.6,0.4 0.6,0.2 7,-4.1 2.4,-0.7 V 648 l -0.9,-0.3 h -0.9 l -0.8,-0.1 -0.5,-0.8 2.8,-0.3 h 1.4 l 1,0.6 1.1,0.4 1.6,-0.2 1.6,-0.5 1,-0.6 -0.4,-0.2 -1,-1 3.9,0.3 1.9,-0.5 1.4,-1.6 -7.4,0.2 -1.2,0.4 -0.1,0.3 v 0.3 l -0.2,0.4 -0.6,0.2 H 603 l -0.3,-0.1 -0.3,-0.2 -0.4,-0.3 0.5,-1.2 -3.5,1.5 h -1.8 l -0.6,-2.7 0.4,-1.4 0.7,-0.8 0.8,-0.6 0.8,-0.8 0.2,-0.5 -0.2,-0.6 v -0.5 l 0.5,-0.2 0.6,-0.1 0.3,-0.3 0.1,-0.5 -0.1,-0.9 2.3,0.5 -0.7,1.4 -0.2,1.4 0.4,2.7 1.2,-2.1 0.5,-1.7 0.9,-1 h 2 l -1.1,-1.7 -0.3,-0.9 1.1,-1.8 v -1.3 l -0.5,-0.9 -1.1,-0.1 -0.4,0.9 -0.3,1.4 -0.4,0.9 -0.9,-0.4 -2,-2.3 -0.5,-1 h 2.3 l -0.5,-1.1 -0.1,-0.9 0.4,-0.3 1,0.5 0.2,-1.9 1.1,0.5 2.4,2.5 1.4,1 1.4,0.4 1.2,-0.4 1,-1.6 1.2,1.2 1.1,-0.5 0.6,-1.4 -0.2,-1.6 1,0.3 1,1 0.8,1.3 0.4,1.3 v 1 l -0.1,0.6 -0.3,0.4 -1.4,0.2 -0.4,0.4 0.1,0.5 0.3,0.8 1.2,1 1.2,-0.4 1.2,-1.2 1.3,-1.8 2.7,-2.7 0.9,-0.4 0.5,1.2 -0.5,1.5 -3.4,5.5 -0.4,0.8 v 1.7 l -0.2,0.8 -0.2,-0.2 -1,0.5 -0.8,0.7 0.2,0.2 -0.3,0.2 -0.6,0.4 h -0.6 l -0.3,-0.9 v -3.6 l -0.2,-0.4 -0.5,0.6 -0.5,1.1 -0.2,0.8 -1,-0.4 v 0.7 l 0.5,1.2 0.5,0.9 1.4,1.5 0.5,0.8 0.4,1.3 -0.3,0.2 -0.9,0.3 -0.2,0.1 v -0.2 l -1.3,0.8 -0.6,0.6 -0.3,0.6 -0.5,0.4 -0.9,0.2 h -3.5 l -1.7,0.6 -1.1,1.2 -0.8,-0.5 -0.8,-0.2 -0.7,0.4 -0.5,0.9 -1,-0.4 -1.2,0.3 -1.2,0.8 -0.9,0.9 -0.2,1 1.5,-0.1 1.9,-0.5 0.7,-0.4 1.4,0.4 1,-0.4 0.9,-0.8 1.2,-0.8 h 0.8 l 0.7,0.2 0.7,0.1 1.3,-0.9 1.3,-0.3 0.7,-0.3 0.7,0.9 0.9,0.8 0.9,0.6 0.8,0.2 0.9,-0.2 0.9,-0.9 0.7,-0.2 1.8,-0.2 1.4,-0.7 2.7,-2.1 -0.8,2.2 -1.1,2.1 -0.5,0.6 -1.3,1.2 -0.6,0.9 -0.3,0.8 -0.3,0.9 -0.4,0.7 -2.1,0.5 -1.6,1.3 -0.9,0.3 0.3,-0.9 1.1,-1.9 0.1,-0.5 -0.6,-0.3 -1.4,1.4 -0.9,-0.2 0.5,-1.3 -1.9,1.4 -1.3,2.1 -1.1,2.6 -1.2,2.3 -1.6,2.2 -0.3,1 0.1,1.7 0.7,2.7 0.1,1.3 -0.4,1.4 1.2,0.3 0.8,1.1 0.3,1.2 -0.2,0.5 0.2,0.3 0.8,0.5 0.7,-0.2 0.3,-1.8 -0.3,-0.4 -0.6,-1.8 -0.2,-1.4 0.9,0.8 3.7,6.3 0.1,1.3 0.3,1.1 0.3,0.9 0.4,1.6 v 1 l 1.4,4.8 0.4,0.6 0.6,1.6 1.5,0.8 1.6,0.2 1.3,-0.4 -0.4,2.1 -4.7,9.1 -1.2,1.7 -7.6,8.3 -5.2,5.5 -1.9,3.2 -0.9,2 -0.4,1.8 0.1,2.7 -0.2,1.7 -0.6,0.8 -0.4,0.9 -0.5,1.1 -0.1,0.4 -1.3,1.7 -1.2,2.4 -1.3,1.2 -3,2 -1.4,1.3 -2.1,3.4 -0.4,0.3 -0.4,0.1 h -1 l -0.6,1.5 -0.3,0.6 -0.7,0.7 -0.7,0.5 -0.5,0.7 -0.1,1.4 0.2,0.9 1.1,1.4 0.5,0.8 -0.4,0.7 -0.5,0.6 -1.4,-1.8 -0.7,-0.5 -1.1,-0.2 -0.8,0.3 -1.4,1.2 -0.7,0.3 -0.8,0.7 -3.5,4.3 -1.3,3.4 -1.1,3.9 -1.5,3.3 -2.9,1.6 v 0.6 l 0.4,0.1 0.3,0.1 0.3,0.2 0.4,0.2 -5.2,11.2 -0.7,3.1 -1,2 -1.3,1.6 -2,1 -0.1,1 0.3,1.7 -0.1,1 0.1,0.5 v 0.6 l -0.5,1.1 -0.6,0.7 -0.6,0.3 -0.4,0.5 -0.2,1.3 -0.2,0.6 -0.7,0.6 -2.8,1.8 -0.8,0.3 -1.8,0.3 -2.8,1.4 -0.4,0.9 -0.2,1 -0.3,0.8 -0.5,0.6 -3.2,2.5 -9,2.2 -2.2,1.1 -1.7,2.2 -5.1,3.8 -1,1.7 -1.5,3.8 -1.5,2.5 -0.4,0.7 z m 159.9,-565 1.5,-0.8 0.3,0.2 0.7,0.9 0.6,1.1 -0.5,0.4 -1,0.3 -0.7,0.7 -0.1,0.8 0.5,1.7 0.1,0.8 -0.2,0.6 -0.3,0.2 -0.8,-0.1 h -0.5 l -1.4,0.5 -1.3,0.2 -1.5,-0.2 -2.7,-1.1 0.5,-0.6 -1.4,-1.4 -0.7,-0.1 -0.8,0.7 -0.7,0.3 -0.2,-1 0.1,-1.4 0.6,-1 h 0.5 3.3 l 0.7,0.4 0.6,0.8 0.7,0.5 1.2,-0.9 z m 44.9,-9.6 -0.4,0.2 -0.4,0.1 h -0.5 -0.4 -0.3 l -0.5,-0.2 -0.8,-0.4 -0.2,-0.2 0.1,-0.3 0.2,-0.4 0.1,-0.2 v -0.3 -0.3 l -0.1,-0.3 -0.4,-0.3 -0.6,-0.1 -0.5,-0.4 -0.3,-0.9 1.8,-0.5 0.4,0.6 0.7,2.2 0.8,0.1 0.5,0.3 0.5,0.5 z m -65.7,-19.2 0.8,-0.5 1.1,0.4 0.9,0.9 0.3,1.2 0.5,1.9 -0.1,0.8 -1.1,0.4 -2.3,-0.1 -0.7,-0.3 1,-0.7 v -1 l -0.6,-2 z m 18.6,-17.7 0.2,0.6 0.6,0.6 0.5,0.9 v 1 l -0.6,0.7 -1,0.4 -1.1,0.1 h -0.9 l -1.3,-1.8 1,-1.6 1.7,-0.9 z m 26.7,8.8 1.2,1.8 0.6,0.4 -1.3,2.8 -0.6,0.6 -1,0.1 -0.5,-0.6 -0.2,-1 v -1.1 l -0.4,-0.8 -0.9,0.2 -1,0.6 H 701 l -0.3,-0.8 -0.2,-2.1 -0.2,-0.7 -0.5,-0.4 h -0.6 l -1.6,0.4 0.3,-0.7 -0.1,-0.5 -0.2,-0.5 -0.5,-0.6 -1.5,0.5 -1.9,-0.8 -1.5,-1.7 -0.4,-1.9 1.7,2.1 0.5,0.2 0.6,-0.7 v -1 l -0.2,-1.1 0.3,-0.9 0.5,-1.4 -0.9,-0.7 -1.3,-0.7 -0.8,-1.4 h 2 l 0.9,-0.3 0.7,-0.8 -1.3,-1.4 -0.3,-1.6 0.8,-1.3 1.7,-0.2 0.7,0.2 0.5,0.5 0.5,0.8 0.1,1 0.3,0.5 2,1.5 -1.3,0.6 0.1,1 1,0.9 1.7,1.1 1.7,0.7 0.6,0.2 0.6,0.3 -0.3,0.7 -0.6,0.8 -0.3,0.7 -0.3,1.2 -0.3,0.9 -0.1,1 0.9,1.4 0.3,0.3 0.3,0.3 0.4,0.1 0.4,0.1 0.2,0.1 v 0.4 l -0.1,0.3 z M 481.5,55.4 h 0.3 0.5 v 0.3 l -0.2,0.3 h -0.6 v 0.3 l 0.2,0.5 V 57 l 0.2,0.2 h -0.2 l -0.3,0.1 -0.4,0.1 -0.4,-0.3 -0.3,-0.4 -0.4,-0.4 -0.3,-0.3 -0.2,-0.5 0.2,-0.1 h 0.2 l 0.4,0.2 0.8,0.1 0.4,-0.2 z m 317.8,451.8 0.5,1.4 h 0.4 l 0.4,0.5 1.1,0.6 1.7,1.3 0.5,0.4 0.8,0.6 h 1.2 l 2.2,-0.3 2.1,0.6 -0.2,1.2 -1.2,1.7 -0.7,2.1 -0.3,0.6 -0.7,0.7 -0.8,0.5 -1.5,0.6 -0.5,1 -1.5,5.7 v 0.3 0.4 l 0.1,0.5 -0.1,0.6 -0.3,0.2 -1,0.4 -0.4,0.3 -0.9,1.7 -2.2,7.5 -1.4,3.5 -0.9,1.5 -0.3,0.8 v 1.1 l 0.1,2.2 -0.1,0.6 -0.1,0.4 -0.8,1.3 -0.2,0.4 -1.1,3 -1.6,3.2 -2.7,3.9 -2.8,2.7 -0.6,0.2 -0.6,-0.3 -0.6,-0.7 -0.6,-0.4 -0.7,0.6 -1.7,2.4 -0.6,1.4 -0.2,1.7 0.4,-0.7 0.6,-0.6 0.6,-0.4 0.7,-0.1 -4.3,8.7 -0.7,6.2 -1.1,2 -1.6,0.1 -1.7,-0.4 -1.3,0.4 -3.8,6.3 -4,4 -0.5,1.1 -0.1,0.9 -0.3,1 -0.4,0.9 -1.3,2.5 -0.4,0.3 -1.1,0.2 -0.5,0.3 -0.4,0.8 -2.6,6.6 -1.5,2.5 -2.3,5.8 -1.1,4.1 -1,1.7 -3.2,1.4 -1.4,1.6 -1.2,2 -0.7,1.8 -2.1,8 -1.4,3.3 -6.7,9.4 -10.1,8.4 -2.5,2.6 -3.3,2.4 -3.8,2 -14.6,11.5 -4.5,1.8 -1.1,0.8 -2.2,2.5 -1.1,0.5 -5,0.4 -1.1,-0.5 -0.6,-2.8 -1,-0.9 0.3,-1.3 -0.3,-1 -0.6,-0.9 -0.4,-1.1 -0.1,-1.2 1.1,-6.6 -0.3,-0.9 -0.7,-0.6 -7.9,-3.1 -1.8,-0.2 -1.7,0.4 -1.5,1.1 -3.3,3.5 -0.6,0.5 -0.7,0.2 -1.1,-0.3 -1.4,-1.1 -0.9,-0.9 -0.2,-0.7 0.9,-1.7 -0.1,-1.5 -0.5,-1.6 v -2.1 l 0.5,-1.9 1.4,-3.4 0.3,-2.3 -0.7,-1.9 -1.8,-0.6 -1.9,0.4 -1.4,0.6 -1,0.9 -0.8,0.8 -0.6,1.1 -0.4,1.4 3.1,0.8 1,0.9 -0.4,2 -0.5,0.7 -0.6,0.6 -0.7,0.1 -0.7,-0.5 -0.7,-0.3 -0.8,0.6 -0.8,0.8 -0.9,0.4 -3,-0.6 -3.2,-1.7 -2.5,-2.5 -0.6,-3.1 0.8,-1.7 1.2,-0.7 3,-0.6 1.1,-0.9 2.5,-3.2 1.7,-1.5 1.6,-3.8 1,-0.8 1.5,-0.7 0.8,-1 h 0.7 l 0.9,2.3 0.8,-0.8 0.4,-0.8 -0.1,-0.9 -0.2,-1.2 -0.4,-0.2 -0.8,-1.1 -0.5,-1.1 0.5,-0.6 0.8,-0.3 1.2,-1.6 0.7,-0.4 0.8,-0.2 0.8,-0.6 0.8,-0.8 0.6,-0.8 0.5,-1.1 0.2,-0.9 0.2,-2.2 1.4,-4 0.6,-1.3 3.9,-4.3 3.7,-6.2 3.1,-7 1.8,-5.9 0.7,-1.5 0.6,-1.8 0.2,-4.9 0.4,-2 v -0.4 l -0.1,-0.6 v -0.5 l 0.3,-0.2 h 0.4 l 0.7,-0.1 0.4,-0.3 -0.4,-1.4 -0.2,-1.3 -0.1,-1.3 0.1,-0.7 0.6,-1.5 0.8,-5 0.2,-3.5 -0.1,-0.9 -0.3,-0.7 -1.1,-2 -0.8,-5.7 -1.3,-4.7 -0.9,-2.3 -1,-1.9 -5,-5.3 -1.4,-2.4 -6,-6.9 -4.6,-2.9 -3.7,-1.7 -1.7,-0.3 h -2.9 -2.5 l -5.3,-2 -4,-0.4 -1.7,-0.4 -1.6,-1.1 -7,-6.6 -1.3,-1.6 -3.8,-6.1 -2.7,-2.9 -3.4,-1.9 -3.5,-1.1 -11.3,-1.8 -3.8,-1.3 -9,-6.8 -2.4,-2.6 -2,-3.4 -1.2,-4 -0.4,-3.9 0.3,-3.9 0.9,-4.1 1.9,-3.8 3,-2.4 6.8,-3.1 16.9,-10.6 1.5,-0.4 8.8,0.6 3.2,-1.1 2.9,-2.2 7.9,-8.3 1,-1.8 0.6,-3.1 0.6,-2 0.1,-1.1 V 431 l 0.3,-0.6 0.1,-0.3 1,-0.3 -0.4,-1.5 0.2,-1.2 0.4,-1.3 0.2,-1.5 0.2,-14.6 0.6,-3.1 2.3,-5.3 0.8,-3 0.5,-3.3 0.4,-4.9 0.6,-3 0.1,-1.8 -0.3,-1.5 -0.6,-1.5 -0.3,-1.5 0.3,-1.2 1,0.6 1.3,0.1 1.2,-0.3 1,-0.4 0.1,0.9 0.4,0.8 0.4,0.7 0.4,0.5 h 0.5 v -1.2 l 1,0.7 0.8,1.1 0.9,0.6 1.4,-0.7 -0.5,-0.3 -1.4,-1.4 1.8,-0.7 2,0.3 1.9,-0.2 1.2,-1.7 h -1.3 l -0.5,0.1 -0.5,0.5 -0.5,-0.6 0.2,-1.7 -1.3,-1.2 -1.9,-0.6 -1.3,0.3 -0.5,1 -0.2,0.8 -0.5,0.6 -1,0.2 -0.7,-0.5 -0.1,-1.2 0.3,-1.4 0.2,-0.9 0.6,-0.9 0.6,-0.2 0.7,-0.1 0.8,-0.4 2.1,-2.4 1.1,-0.8 0.1,-1.6 -0.8,-1.4 -1.5,-0.2 -1.1,1.5 -0.6,1.9 -0.8,1.1 -1.8,-1.3 -0.3,-1.6 0.5,-7.9 1.8,-4 3.1,-1.1 3.8,-0.1 3.5,-0.5 -0.2,-0.8 -0.4,-0.5 -0.6,-0.3 -0.6,-0.2 0.9,-0.7 0.7,-0.9 0.2,-1.1 -0.4,-1.3 -2.8,1.7 -0.3,0.4 -0.2,0.9 -0.4,0.4 -0.2,-0.1 -0.4,-0.2 -0.5,-0.2 -2,0.9 -1.1,-1.3 -4.3,-16.4 -3.8,-9.2 -0.7,-3.8 v -0.9 l 0.6,-1 0.8,-0.5 1.9,-0.5 0.7,-0.5 0.8,-1.5 0.5,-1.9 0.9,-1.6 1.6,-0.7 0.1,-0.3 -0.3,-0.6 -0.7,-0.4 -0.9,0.5 -0.6,0.5 -1.3,0.9 -0.6,0.5 -1.8,3.4 -1,0.5 -1.4,-1.3 -1,-1.5 -2.7,-6.4 -0.7,-2.6 -1.5,-3 -0.3,-0.7 -0.4,-1.8 -2.8,-5.3 -0.4,-2.3 1.1,-0.1 1.8,0.4 2.6,-0.8 1,0.3 0.7,0.7 -0.2,0.9 -0.6,0.9 -0.1,0.5 3.3,6.6 0.3,2.6 0.9,2.1 1.2,0.9 0.7,-1.9 -0.8,-2.2 -0.2,-1.3 0.8,-0.5 1.9,0.3 0.9,-0.1 1,-0.7 h -1.4 l -3.3,-0.6 -1.2,-0.6 1,-0.5 3.6,-3.1 0.5,0.2 -0.1,1.8 2.7,-3.3 1.5,-1.2 1.7,-0.2 2.5,2.9 0.9,0.5 0.9,-0.4 0.2,-0.9 -0.4,-1.1 -0.5,-1 0.1,-0.9 -3.4,-1.4 -1.2,-1.1 -1.1,0.4 -0.6,-1 -0.4,-1.6 -0.6,-1.2 -1.7,2 -1,-0.8 -0.1,-1.9 0.7,-1 0.8,-0.2 0.8,-0.6 0.6,-0.8 0.3,-1 -4.3,-0.7 -4.4,0.2 -2.2,0.7 -1.8,1.3 -0.5,1 -0.4,2 -0.4,0.9 -0.6,0.9 h -0.6 l -1.5,-1.4 -1,1.4 -1.4,1.3 -1.5,0.5 -1.4,-0.7 -0.7,-1.4 -2.7,-9.5 -1.4,-7.7 -1.3,-3.7 -3.4,-6.3 -9.1,-11.6 -2,-3.7 -0.4,-3.8 0.2,-1 0.3,-0.7 0.5,-0.5 0.8,-0.1 -0.7,2.3 -0.1,1.1 0.4,1.2 1,-2.2 0.7,-0.9 0.9,-0.3 1,0.6 1,2.7 1.3,1.2 1.5,2.7 0.9,0.7 1.1,0.3 0.7,0.7 -0.1,1 -1,0.8 2.7,1 0.7,0.1 v 0.2 l -0.6,0.4 -1,0.4 -0.9,0.1 0.6,0.5 0.3,0.7 -0.1,0.8 -0.3,0.8 0.7,0.1 0.7,0.2 1.3,0.9 v -0.6 -1.1 -0.6 l 0.7,1.2 0.6,1.8 0.7,1 0.7,-1.7 0.7,0.1 0.2,-0.9 0.2,-1.4 0.3,-1.2 0.4,-0.6 1,-0.9 0.4,-0.8 -1,0.4 -0.4,0.2 -0.6,-1.6 0.7,-3.7 -0.5,-0.9 -0.6,1.2 -0.3,-0.6 v -4.3 -0.3 l 0.2,-0.4 1.1,-1.2 -0.5,-0.9 -0.8,-0.9 -0.6,-1 0.3,-0.9 1.5,-1.3 -0.1,-0.5 -2.1,-1.3 h -0.5 l -1,1.5 -0.9,0.7 -0.6,0.4 -3.8,0.3 -2.1,-0.5 -1.5,-1.4 -0.4,-2.6 0.9,0.5 0.5,-2 0.7,-0.2 0.9,0.7 1,0.4 2.9,-0.2 1.3,-0.4 1.1,-0.8 1,-1.1 0.8,-0.6 2,-0.8 1.8,-1.7 0.7,-0.3 h 0.5 l 0.4,-0.3 0.3,-1.1 -0.4,-0.4 h -0.2 l -0.1,-0.2 -0.2,-0.5 -0.7,0.7 -0.9,0.5 -0.9,0.3 h -0.3 l -0.7,0.1 -0.6,0.3 -1.6,1.5 -0.7,0.5 -0.5,-1 -1.1,0.8 -1.3,1.2 -1.2,0.7 -1.7,-0.3 -0.9,-0.4 -0.6,-0.4 -0.3,-1.5 0.7,-0.3 1.9,0.6 1.1,1 0.5,0.1 0.3,-2.1 1.1,-2.6 1.5,-2 0.4,-0.9 0.1,-0.6 0.1,-0.7 0.3,-1.2 1.1,0.5 0.8,-0.1 0.2,-0.7 -0.7,-1.3 -0.7,-0.5 -2.5,-0.7 0.3,2.5 -0.9,2.8 -1.6,2.2 -1.9,1 1.1,-1.4 0.3,-0.3 -0.7,-0.3 -0.8,0.2 -0.5,-0.1 -0.3,-0.7 -0.1,-1.3 -0.5,-0.2 -0.5,0.2 -0.6,-0.1 -0.7,-0.3 -0.5,0.1 -0.2,-0.3 v -1.2 l 0.1,-0.9 0.2,-0.8 0.6,-1.6 -1.1,0.1 -0.7,0.5 -1.4,1.6 0.3,-2.3 h -1 l -2.9,2.3 0.7,0.7 v 1.8 l 0.9,0.3 h 1.2 l 0.8,0.2 0.7,0.5 0.7,1 -0.4,1.2 v 0.7 l 0.6,0.4 0.5,-0.2 0.3,-0.4 0.5,-0.8 h 0.6 l 0.8,0.7 1.1,1.8 -2.3,0.6 -0.4,0.2 -0.2,0.8 -0.4,0.4 -0.5,0.2 h -0.7 l -0.5,-0.3 -0.9,-1.1 -0.6,-0.3 -0.7,-0.1 -0.5,-0.3 -1.5,-2.3 -0.6,-1.2 -0.8,-1.2 -1.1,-1 -1.2,-0.3 -3.2,-0.1 -0.6,-0.5 -0.4,-0.8 -1,-1 -1.1,-0.9 -0.9,-0.4 -1.1,-0.6 -0.4,-1.5 -0.1,-3.2 -0.4,-1.2 -1.9,-2 -0.7,-2.5 -0.9,-0.9 -2,-1.6 2.4,-2.2 0.6,-1.3 -0.3,-2 -0.3,-0.6 -0.7,-0.7 -0.8,-0.5 -0.4,0.1 -0.2,1 0.5,0.8 0.7,0.6 0.3,0.4 -0.4,1.8 -2.5,1.3 -0.3,1.3 3.4,4.8 0.5,0.9 1.4,0.8 0.5,1.9 0.3,2.2 0.5,1.5 0.5,0.7 0.8,1.8 0.5,0.9 0.7,0.5 0.8,0.3 0.8,0.6 0.5,1.5 0.6,0.6 0.7,0.5 0.5,0.5 3.6,5.6 0.9,0.5 1,-0.2 0.9,0.1 0.6,1 -1.3,0.6 0.6,1 1.3,1.4 0.8,1.8 -0.6,1.7 -1.3,1.1 -3.1,1.4 -3.2,0.1 -1.5,-2.9 -2.1,-7.9 -8.6,-11.8 -2.4,-4.8 -14.9,-20.2 -14.9,-20.1 -0.4,-1.5 0.4,-1.3 2.2,-3 0.5,-1.3 0.2,-1.8 0.4,-1.9 0.9,-1.1 1.3,0.7 0.3,-0.8 0.1,-0.4 0.7,0.7 0.6,0.9 0.7,0.8 1,0.4 0.1,-0.6 -0.1,-2.8 0.2,-1.1 1.8,2.9 0.4,-1.4 v -1.6 l 0.3,-1.5 1.1,-1.2 h 0.7 l 0.3,0.4 0.4,0.2 0.9,-0.6 0.2,-0.5 0.5,-1.7 1,-1.9 -2.4,0.8 -0.7,-0.2 v -1 l -0.1,-0.6 -0.3,-0.3 -0.7,-0.1 -0.3,0.4 v 3 l -0.7,-1.3 -1.1,-3.8 -1.1,1.3 0.2,1.4 0.9,1.6 0.5,1.3 -0.4,1.4 -1.1,0.7 H 573 l -1.6,-1.1 -0.7,-0.1 -0.4,0.3 0.6,1.6 -0.4,0.4 -0.7,0.2 -0.6,0.2 -0.6,0.4 -0.4,-0.3 -0.8,-1.2 h -0.5 l -0.7,0.4 -1.3,1 0.5,1.1 -0.4,0.6 -0.8,0.4 -0.6,0.7 -0.1,0.4 0.2,0.4 0.2,0.3 h 0.1 l -0.2,6 -0.2,0.7 -0.6,0.1 -0.6,-0.5 -5.7,-8 -0.7,-2.2 0.3,-1.3 2.3,-2.6 h -0.5 l -0.9,-0.1 -0.5,0.1 1.4,-1.6 0.5,-0.8 0.4,-0.9 -2,0.3 -1.2,1.3 -0.8,1.8 -0.6,2.1 -0.7,-0.6 -2,-2.4 -0.4,-0.8 0.5,-0.7 2.4,-1.8 0.7,-0.9 -0.9,-0.3 -1.9,1.1 -1.3,0.3 -1.1,-0.4 -0.9,-0.8 -1.6,-2.1 -2.6,-2.8 -0.5,-1 0.2,-1.6 0.9,-0.5 1.3,0.3 1.2,0.6 2.1,-2.9 1.3,-3.8 0.2,-4.2 -0.9,-4 -2.1,-5.1 -0.8,-1.3 -4,-4.1 -1.2,-1.7 -2.1,-5.3 -0.8,-0.8 -1.2,-0.6 -13.5,-17.9 -2.7,-2.3 -5.6,-3.4 0.7,-0.6 0.4,-0.6 0.7,-1.5 -0.1,-0.7 -0.1,-1.2 0.3,-0.8 1.1,0.7 1.5,0.8 3.9,0.2 1.6,1 0.9,-0.9 2,-0.5 2,-1.3 7.5,0.7 1.2,-0.3 0.7,-0.6 0.7,-0.8 0.8,-0.2 1,1.1 -1.9,1.3 -0.5,1.6 0.1,4.3 -0.2,1 -0.2,0.7 -0.6,0.4 -1,0.1 -0.4,-0.5 -0.2,-0.9 -0.5,-1 -0.9,-0.4 0.1,-0.4 0.2,-0.9 0.1,-0.4 -1.3,-0.5 -0.5,0.2 -0.5,2 -0.2,1.8 -0.5,0.5 -1.1,-0.7 -0.1,0.8 -0.2,0.6 -0.4,0.5 -0.7,0.4 0.7,0.7 2.1,1.5 0.2,-0.9 0.3,-0.7 0.5,-0.5 0.8,-0.1 -0.4,1.1 -0.2,0.6 -0.3,0.5 0.7,0.5 0.6,0.1 0.6,-0.4 0.4,-0.8 0.3,0.9 0.1,1.1 v 4.6 l 0.3,0.6 0.6,-0.6 0.8,-1.9 0.1,-2.3 -0.4,-2.3 -1,-1.7 1.7,0.8 1,4 0.7,4.7 0.7,3.1 2.2,2.5 2.7,2.4 2.2,2.7 0.6,3.4 -3.2,-3.8 -1.4,-1.2 0.3,2.9 2.8,2.8 8.8,5.2 -0.2,1 -1.4,1.7 -0.4,0.7 -0.3,0.8 v 3.3 l 0.2,0.5 0.4,-0.1 0.7,0.1 2.2,0.6 h 0.6 l 0.5,-0.8 0.2,-0.9 0.3,-0.8 1,-0.4 0.8,-1 -0.1,-2.3 -0.9,-3.9 0.3,-1.7 1.3,-0.6 1.6,-0.3 1.5,-0.9 0.5,-1.1 -0.1,-0.9 -0.4,-0.8 v -0.5 l 0.8,-0.8 h 0.5 l 0.4,0.6 0.4,1 v 0.7 l -0.1,0.7 -0.4,1.3 2,-1 0.8,-0.1 -0.4,0.8 0.2,0.7 1,1.3 -2.7,1.1 h -2.7 l -0.7,0.3 -0.4,1.3 0.3,1.5 0.7,1.4 0.6,1.1 0.9,1.2 1.1,1 1.3,0.8 1.4,0.3 3.2,-0.4 1.3,0.4 1.2,1.7 0.8,-1.4 0.1,-0.3 -0.7,-1 -0.8,-0.7 -0.7,-1 -0.1,-1.2 0.7,-1.4 0.8,-0.1 0.9,0.8 0.8,1.3 0.8,-0.9 0.9,-0.1 0.7,0.4 0.7,1.8 1,0.4 h 2 l 0.2,-0.2 0.2,-0.4 0.2,-0.3 0.5,-0.2 0.7,0.2 0.1,0.4 v 0.6 l 0.1,0.4 0.4,0.5 0.2,0.6 0.2,0.4 0.6,0.2 h 0.5 l 0.4,0.2 0.9,0.4 -0.8,0.4 -0.4,0.7 -0.3,0.9 -0.3,0.7 -1.5,1.1 -0.7,0.7 0.2,0.7 2.2,2 1.4,-0.1 0.3,-0.3 -0.1,-0.6 v -0.7 l 1.4,-2.8 v -0.5 l -0.1,-1.2 0.1,-0.4 0.4,-0.5 1.2,-0.1 1.1,-0.7 h 1 l 2,0.1 -0.2,0.4 0.5,1 1.2,1.4 2.6,2 1.1,1.3 0.4,2 0.9,1.4 2.1,0.4 3.8,-0.5 1.6,0.5 1.6,1.1 1.3,1.6 0.5,2.1 -2.7,0.8 -0.8,-0.3 -0.2,-0.7 -0.1,-0.9 -0.3,-0.8 -0.3,0.1 -0.5,0.4 h -0.7 l -0.8,-1.1 -1.6,0.9 -0.7,0.5 0.6,0.5 1.3,2 -2.2,0.2 -0.2,1.2 1,0.8 1.4,-0.6 0.6,0.5 0.8,0.2 0.7,-0.2 0.6,-0.5 0.9,1.3 -0.2,1.1 -0.5,1 -0.2,1 0.5,1.1 2.5,2.6 0.3,0.7 0.2,0.9 0.2,2.2 0.2,0.3 0.4,-0.9 0.5,-1.3 0.2,-1.1 1.3,0.7 0.7,0.3 0.7,0.1 -0.1,-0.4 -0.2,-0.9 -0.1,-0.3 0.9,-0.1 0.6,0.4 0.4,0.5 0.5,0.3 0.6,-0.4 0.2,-0.8 -0.2,-0.8 -0.6,-0.3 -1.4,-0.2 -1.9,-0.5 -1.7,-0.8 -0.6,-1.3 0.5,0.6 0.9,-0.9 1.6,-0.1 3.3,0.4 -0.3,-0.8 -0.2,-0.3 h 0.7 l 0.9,0.1 0.7,0.2 v 0.3 l 0.7,-0.4 0.1,-0.3 v -0.4 l 0.4,-0.8 1.8,-2 2,-1.6 0.5,2 -0.6,1.6 -0.8,1.6 -0.5,1.9 0.5,2 1.2,0.8 1.4,0.1 h 1.5 v 0.5 l -0.6,1.1 2,2.5 -1,0.8 -0.4,-0.2 -1.8,-2 -2.1,-1.6 -0.7,-0.6 1.1,1.8 2.5,5.4 1.4,1.2 1.4,0.1 1.4,0.4 -0.1,-0.2 0.1,-0.2 0.1,-0.2 0.3,0.1 0.3,0.2 0.2,0.7 0.2,0.2 0.5,0.6 1.6,2.8 0.4,1 -2.6,0.4 0.3,1 3.4,2.8 3.2,3.4 0.6,1.9 -0.9,2.8 -1,-0.6 -2.9,-0.5 -1.2,-0.1 -0.7,0.5 1.1,0.9 2.5,1.4 -0.4,0.1 -0.9,0.5 1.7,0.4 0.6,0.3 0.3,0.7 -0.2,0.8 -0.6,0.6 -0.7,0.4 -0.7,0.2 3.8,2.4 0.7,0.8 0.1,1.1 -0.5,1.9 0.2,0.7 1.6,3.1 -1.8,0.5 -1.4,-0.9 -1.3,-1.3 -1.4,-1 0.4,-1.6 -1.9,-0.5 0.1,-1.3 h -1 l -1.7,0.8 -0.9,0.2 -0.5,-0.1 -0.7,-0.8 -0.4,-0.1 -0.4,0.2 -0.4,1.2 -0.3,0.2 -1.1,0.1 -0.1,-0.2 0.2,-0.7 v -1.5 l -0.2,-1.1 -0.3,-1 -0.5,-0.9 -0.7,-0.8 -0.4,1.8 0.4,4.4 -0.3,1.3 -0.3,0.9 -0.1,1 0.2,1 0.5,0.7 1,0.1 0.5,-0.6 0.5,-1.1 0.5,-0.9 1.2,-0.2 4.3,0.6 1.5,0.5 1.1,1.4 -0.3,1.6 -1.2,1.6 -1.4,1.5 1.1,1.2 0.2,2 -0.1,2 0.1,1.5 0.8,1.1 3,2.2 1.2,0.6 0.8,0.2 h 1.7 l 0.7,0.4 0.7,1 -0.1,0.8 -0.4,0.7 -0.2,0.9 0.4,1.9 0.7,1 0.9,0.8 1.2,1.3 3.7,5.8 2.1,2.4 2.7,1.9 1.8,0.7 v 0.5 l -0.4,1.1 v 0.2 l 0.3,0.1 0.1,0.2 -0.2,0.3 -0.2,0.1 H 658 l -0.2,-0.2 V 230 l -0.4,0.3 -0.2,-0.1 -0.2,0.1 -0.2,0.9 0.6,1.5 1.4,0.6 1.9,0.2 1.6,0.5 -2,0.4 -5.5,-0.3 -1.1,0.2 0.2,1.1 0.9,3.4 1,2.2 0.2,1.4 -0.2,1.5 -0.3,1.3 -1.3,-3.9 -1,-1.6 -1.8,-0.7 1.2,3.6 -0.1,1.4 -1.5,0.1 v 0.6 l 0.6,0.2 0.6,0.3 0.5,0.5 0.5,0.6 -0.4,0.9 -1.4,0.8 -0.4,0.6 v 1.1 l 0.7,1.4 0.2,1.1 -0.1,1.7 0.4,0.3 0.8,0.9 0.7,0.4 0.9,0.3 1.8,0.1 2.8,-1.1 h 0.8 l 0.7,0.6 -0.3,0.4 -3,1.8 -1.7,0.6 -1,-0.1 -2.8,-1.1 1.3,1.5 1.1,2 3.9,12.4 -1.4,-0.4 -0.9,-0.8 -0.9,-0.3 -1.8,0.9 -0.5,-0.4 -0.3,-0.5 0.1,-0.6 0.3,-0.7 -1.3,-0.3 -0.9,-2.3 h -1 l -2.3,1.2 -1.1,0.7 -1.1,1.2 v 0.6 l 0.6,0.1 2.3,-0.4 1.2,0.3 -0.6,0.6 -1,0.6 -0.6,0.7 0.3,0.6 1.1,0.7 0.3,0.3 v 0.5 3.5 l 0.3,1.1 0.8,0.5 0.6,-0.4 0.1,-1.1 -0.1,-1.1 0.1,-0.9 0.5,0.7 0.5,-1 0.6,-0.8 0.8,-0.6 0.8,-0.5 1,-0.1 3.1,0.7 h 4.1 l 1.5,0.9 -0.2,2.5 -0.7,1 -0.6,0.5 -0.4,0.8 0.3,1.5 0.4,1.1 0.3,0.6 0.5,-0.1 0.6,-0.9 1.8,-9.1 h 0.5 l 1.4,3.9 0.5,1.9 -0.1,2.2 1.5,-0.4 1.7,-0.1 0.8,-0.6 -1,-2 -0.3,-1.4 1.6,-0.4 2.1,0.3 1.3,0.5 0.8,1.9 -0.7,3.8 0.8,1.4 1.1,0.3 0.8,-0.3 0.7,-0.5 1.1,-0.4 1.6,-1.1 0.4,0.2 0.3,0.3 0.4,0.1 2.1,-1 0.6,-0.2 0.7,0.3 1.4,1.2 0.9,0.3 0.5,0.3 2.3,2.9 0.5,0.9 0.3,0.9 0.2,1.2 v 2 l -0.9,5.7 0.3,1.9 0.8,1.8 1,1.6 1,1.2 2.4,1.4 3,0.1 3,-0.8 2.5,-1.2 0.6,-0.6 0.2,-0.5 0.3,-0.4 1,-0.2 0.5,0.4 0.2,0.8 v 1.9 l 0.3,1.6 0.9,1 1.2,0.2 1.2,-0.8 -1.1,-0.3 -0.7,-0.8 -0.4,-1.3 -0.2,-2.6 -0.6,-2.2 -0.2,-1.1 -1.1,-2.5 -0.2,-1.2 v -4.3 l -0.3,-1.1 -0.3,-0.6 -1.5,-5.1 -0.5,-1 -0.6,-1 -0.9,-0.8 -1.6,-1.2 -0.7,-0.7 -0.4,-0.9 -0.2,-0.9 -0.4,-0.8 -0.8,-0.8 1.4,-0.5 1.6,0.3 1.4,-0.1 1,-1.4 -2.2,0.1 -1,-0.2 -0.9,-0.5 0.8,-0.3 0.8,-0.2 0.7,-0.3 0.5,-0.9 h -0.6 l -0.5,-0.2 -0.3,-0.2 -0.5,-0.2 3.4,-0.9 1.1,-1 -0.4,-2 -1,0.7 -0.3,0.4 -0.5,-0.8 -0.3,-0.8 -0.1,-0.9 0.4,-0.8 -1.4,-2.5 0.4,-2.2 0.9,-2 -0.3,-1.9 -0.6,-0.3 -0.8,-0.1 -0.6,-0.3 -0.3,-0.7 -0.2,-0.2 -1.2,-1.7 -1.2,-0.6 -2.4,-1 -1.1,-1 -0.6,-1.1 -0.3,-1.3 -0.2,-3.2 0.5,-1.2 h 1.4 l 1.6,0.3 2.2,-0.5 0.4,0.5 0.3,0.6 0.4,0.8 0.2,0.6 0.2,0.3 0.3,0.2 0.5,0.3 1.3,1.3 0.7,0.1 1.7,-1.9 1.2,1.5 0.8,2.1 -0.1,2.1 -1.4,1.6 1.3,1.1 1.5,0.1 1.2,0.4 0.5,2.1 0.2,2.1 -0.2,1.1 -0.7,-0.4 -0.8,-0.7 -0.7,0.2 -0.2,0.7 0.4,1 0.7,0.3 1.9,-0.3 0.8,0.2 0.4,1 -0.2,0.8 -0.5,0.8 -0.2,0.9 0.5,2.4 0.9,0.2 2.7,-2.1 -1,-0.4 -0.4,-0.1 0.5,-0.8 0.8,-0.3 0.9,0.2 0.8,0.6 0.8,0.4 1,-0.5 1.6,-1.4 1.2,-0.4 0.9,-0.1 0.9,0.4 0.8,1 0.8,0.1 0.9,-0.5 0.7,-0.1 0.1,1.4 -0.4,1.1 -0.6,0.3 -1.9,-0.3 -0.3,0.4 -1.3,2.4 -0.9,0.6 -1.7,0.7 -0.8,0.7 -1,1.4 -1,1.7 0.8,0.7 -0.1,0.6 -0.2,0.6 0.1,0.7 0.8,0.7 0.8,0.5 h 0.5 l -0.1,-0.9 1.1,-0.9 -0.5,-2.6 0.8,-1.1 1.5,0.8 2.7,-0.6 1.5,1.2 0.2,0.9 v 2.2 l 0.2,0.9 1.1,1.3 0.3,0.7 0.3,1.1 0.4,3.9 -0.3,2.6 0.1,0.5 0.1,0.8 -0.4,0.9 -0.6,0.9 -0.3,0.9 0.4,0.6 0.7,-0.5 0.7,-0.9 0.5,-0.7 1.2,1.6 -0.3,2.1 -0.9,2.2 -1.1,1.8 -0.1,0.7 0.6,0.3 0.9,0.2 0.6,0.3 0.2,1 -0.1,2.4 0.4,1.1 -0.7,-0.5 -0.5,-0.6 -0.3,-0.8 -0.3,-0.9 h -0.5 l 0.3,2 0.4,1.8 0.1,1.5 -0.8,0.9 2.2,1.1 0.8,0.8 0.6,1.5 0.7,3.2 0.2,3.4 0.3,1.3 1.2,2.6 0.3,1.2 0.2,0.6 0.9,0.7 0.3,0.7 -0.1,1.1 -0.3,-0.1 -0.5,-0.5 -0.5,0.1 -0.6,1.3 0.7,0.5 2.6,0.5 1.1,0.4 1.2,0.8 1.1,0.9 0.9,1 0.7,1.1 1,2.4 0.6,1 1.9,1.8 0.8,1.1 0.2,1.4 -2.3,-1.8 -0.8,-0.5 -1,-0.1 -1,0.2 -1,-0.2 -1.1,-1 0.7,-0.4 2,-0.7 -2.3,-1.7 -1.1,-1 -0.9,-1.1 -1.3,-0.8 -1.7,-0.1 -3.1,0.6 0.4,0.5 0.6,0.9 0.3,0.4 -0.2,0.5 -0.2,0.5 -0.1,0.7 0.1,0.6 0.4,0.6 0.4,0.1 0.4,-0.2 h 0.2 l 0.3,0.3 0.7,0.1 0.3,0.2 0.1,0.5 -0.2,0.5 -0.2,0.4 -0.1,0.3 0.3,1.9 0.1,0.4 0.3,0.4 0.4,0.2 h 1.1 l 0.5,-0.2 0.4,-0.4 0.2,-0.4 0.3,-0.2 1.1,0.6 0.6,1 0.4,1.2 0.6,1.3 1.1,-0.8 0.6,0.5 0.6,0.9 0.6,0.5 1,-0.4 0.3,-0.9 0.5,-0.7 1.2,0.2 0.9,0.6 0.4,0.8 0.1,1 -0.1,1.4 0.4,0.7 h 0.8 l 1.1,-0.3 0.9,-0.1 -0.9,-4.1 -1.4,-2.5 -0.4,-1.1 0.9,-0.3 1.3,1.1 2.3,4.2 1.6,1 1.8,0.4 4,2 1.9,0.4 0.8,0.4 1.6,1.5 0.8,0.4 h 2 l 0.3,0.3 0.3,0.6 0.4,0.2 0.8,-0.5 13.2,9.6 2.7,1.3 4.2,0.7 4,1.6 4.5,0.6 3.6,2.3 6.1,0.9 2.5,1.4 h -3.9 l -0.7,0.2 0.4,0.5 3.1,2.2 0.8,0.4 1,0.2 0.8,-0.5 0.2,-1 -0.3,-1.2 -0.5,-0.8 1.1,-0.3 0.7,0.4 0.5,0.6 0.9,0.4 h 4.3 l 0.2,0.2 0.7,1.3 0.4,0.2 0.3,-0.1 0.3,-0.3 0.4,-0.1 0.2,-0.3 v -0.6 -0.6 l 0.4,-0.3 h 0.8 l 2,-0.5 5.9,-0.5 1.6,-1 1.2,-1 5.1,-3.2 2,-1.8 0.7,-0.9 0.2,-0.7 V 358 l 1.1,-2 0.2,-0.8 0.4,-0.5 2.8,-1.5 1,-1.5 0.8,-3.1 0.7,-1.4 1,-1.2 0.4,-0.7 0.2,-1 0.5,-0.6 6.6,-1.9 1.3,-0.1 1.2,-0.4 0.9,-0.9 1.5,-2.4 1.1,-0.6 2.9,-0.3 1.2,-0.5 0.9,-1 0.2,-0.8 -0.3,-0.9 -0.8,-1.3 2.6,0.5 16.3,0.8 1.6,0.5 0.8,0.7 -0.9,0.9 v 0.6 l 0.8,0.4 1.2,1.3 0.7,0.6 1.1,0.4 1.1,0.1 h 2.4 l 0.8,0.3 1.3,1.2 0.8,0.2 h 2.1 l 0.8,0.1 1,0.5 1,0.8 1.5,1.6 1,1.7 -0.1,1.4 -0.6,0.7 -1.2,2.1 -2.5,2.6 -1.4,3.9 -0.9,2.1 -2.4,1.7 -0.9,1.8 -1.9,5.3 -0.7,1.3 -1.1,1.4 -0.5,0.8 -0.2,1 0.5,1.9 1,1.8 0.7,1.8 -0.4,2.2 -1.1,1.1 -1.3,1 -0.7,1.3 1.7,3.6 -0.2,1.7 -0.8,1.6 -1,1.5 -0.4,1.7 0.9,1.7 1.3,1.5 0.7,1.1 -0.2,0.9 -0.6,0.9 -1.1,1.1 -0.3,1.1 -0.1,1.9 -0.5,1.1 0.9,0.2 0.6,0.6 0.4,0.9 v 1.2 l -0.5,0.7 -2.5,1.4 -0.3,0.7 0.1,5.5 -0.4,0.6 -7.4,8.4 -6.8,6 -1.1,0.6 -2.6,-2.4 -1.7,-0.4 -1.7,0.4 -1.4,1 -0.5,0.3 -0.5,-0.2 -0.2,0.1 -0.1,1 v 0.4 l 0.2,0.9 0.2,0.4 1.2,1.4 0.6,0.9 -0.2,1 -1.1,2.1 -0.5,1.9 v 4.4 l -0.7,5 -0.9,2.5 -0.2,3.4 -0.5,1.4 0.6,1.6 -0.5,1.3 -0.9,1.2 -0.5,1.7 4.6,0.5 2.2,1.2 0.9,2.1 -3.6,3.7 -1.6,4.3 -0.6,2.8 -0.8,0.9 -1,0.9 -1,1.1 -1.8,-5.2 -0.5,-2.8 v -2.5 l 0.4,-1.4 0.5,-1.4 0.6,-1.2 0.6,-1 v -1 l -0.9,-0.6 -1.3,0.1 -0.8,1.3 -0.7,-0.4 -2,-1.4 -1,-0.4 -10.5,-0.4 -10.7,-0.3 -0.8,-0.4 -0.6,-0.5 -0.6,-0.2 -1.7,1.5 -12.3,6.1 -9,4.3 -0.8,1.1 -0.3,1.9 -0.7,1.8 -0.9,1.7 -1.6,2.2 -2.4,2.6 -1.5,1.2 -0.3,0.3 -0.7,2.3 -0.8,1.1 -0.5,1 -0.2,1.1 -0.1,1.5 0.3,1.4 0.5,0.8 0.8,0.6 0.7,1 0.5,1.7 0.4,8 z"
       id="NZ"
       name="New Zealand"
       style="stroke:#000000;stroke-opacity:0;fill:#4b5450;fill-opacity:1" />
  </g>
  <g
     id="points">
    <circle
       class="-47.36652345617253|167.07146649770925"
       cx="146.10001"
       cy="1215.6"
       id="0"
       r="0" />
    <circle
       class="-41.7992510236829|173.1213118658109"
       cx="546"
       cy="698.29999"
       id="1"
       r="0" />
    <circle
       class="-34.84016048307086|177.9611881602922"
       cx="865.90002"
       cy="111.2"
       id="2"
       r="0" />
  </g>
  <g
     id="label_points">
    <circle
       class="New Zealand"
       cx="291.39999"
       cy="1007.3"
       id="circle1"
       r="0" />
  </g>
</svg>
